<?xml version="1.0" standalone="no"?>
<!DOCTYPE svg PUBLIC "-//W3C//DTD SVG 20010904//EN"
 "http://www.w3.org/TR/2001/REC-SVG-20010904/DTD/svg10.dtd">
<svg version="1.0" xmlns="http://www.w3.org/2000/svg"
 width="695.000000pt" height="680.000000pt" viewBox="0 0 695.000000 680.000000"
 preserveAspectRatio="xMidYMid meet">

<g transform="translate(0.000000,680.000000) scale(0.100000,-0.100000)"
fill="#fff" stroke="none">
<path d="M3425 6624 c-160 -40 -275 -168 -350 -392 l-32 -97 -1177 -3 -1176
-2 0 -2730 0 -2730 1178 0 1177 0 0 -98 c1 -87 4 -104 32 -164 36 -77 97 -142
158 -169 66 -29 201 -52 268 -45 155 16 268 137 351 376 l33 95 1187 3 1186 2
0 2730 0 2730 -1170 0 -1170 0 0 103 c0 211 -72 322 -237 369 -67 19 -219 32
-258 22z m-2015 -899 l0 -295 -305 0 -305 0 0 288 c0 159 3 292 7 295 3 4 141
7 305 7 l298 0 0 -295z m675 0 l0 -290 -307 -3 -308 -2 0 295 0 295 308 -2
307 -3 0 -290z m675 0 l0 -295 -305 0 -305 0 0 295 0 295 305 0 305 0 0 -295z
m253 288 c3 -5 -1 -51 -9 -103 -7 -52 -16 -153 -19 -225 -3 -71 -8 -158 -11
-192 l-6 -63 -74 0 -74 0 0 295 0 295 94 0 c52 0 97 -3 99 -7z m1107 -288 l0
-295 -315 0 -315 0 0 240 c0 132 1 240 3 240 2 0 25 -7 51 -16 100 -34 213 -1
287 85 l34 39 128 1 127 1 0 -295z m670 0 l0 -295 -305 0 -305 0 0 295 0 295
305 0 305 0 0 -295z m710 0 l0 -295 -325 0 -325 0 0 295 0 295 325 0 325 0 0
-295z m645 0 l0 -290 -292 -3 -293 -2 0 295 0 295 293 -2 292 -3 0 -290z
m-2734 255 c18 -10 19 -24 19 -280 l0 -270 -74 0 -74 0 -7 158 c-9 185 2 316
31 355 31 42 69 56 105 37z m-2001 -915 l0 -305 -302 2 -303 3 -3 303 -2 302
305 0 305 0 0 -305z m678 3 l-3 -303 -307 -3 -308 -2 0 305 0 305 310 0 310 0
-2 -302z m672 172 l0 -129 -79 -60 c-43 -33 -128 -112 -187 -176 l-108 -115
-118 0 -118 0 0 305 0 305 305 0 305 0 0 -130z m218 64 c3 -69 7 -64 -90 -118
l-68 -37 0 111 0 111 78 -3 77 -3 3 -61z m339 60 c-3 -3 -12 -4 -19 -1 -8 3
-5 6 6 6 11 1 17 -2 13 -5z m1473 -129 c0 -74 -4 -135 -9 -135 -5 0 -14 6 -21
14 -46 56 -367 236 -420 236 -10 0 -22 5 -25 10 -4 7 77 10 234 10 l241 0 0
-135z m710 -170 l0 -305 -182 0 -183 0 -142 142 -143 143 0 162 0 163 325 0
325 0 0 -305z m645 0 l0 -300 -292 -3 -293 -2 0 305 0 305 293 -2 292 -3 0
-300z m-2055 264 c36 -5 83 -14 105 -20 l40 -11 -68 -35 c-110 -55 -226 -141
-417 -309 -230 -202 -455 -467 -643 -756 -161 -248 -523 -997 -770 -1590 -76
-183 -84 -197 -111 -202 -54 -11 -281 -6 -376 9 -159 24 -182 35 -300 151
l-105 103 -3 139 c-4 165 11 261 69 436 123 366 414 837 815 1316 319 382 429
478 689 601 327 155 724 217 1075 168z m383 -120 c256 -129 578 -443 975 -949
127 -161 152 -203 178 -298 19 -70 29 -246 19 -333 l-7 -64 -83 -68 c-200
-161 -391 -297 -419 -297 -33 0 -192 135 -381 324 -312 311 -585 618 -1053
1183 l-43 51 78 75 c223 215 432 362 558 393 79 19 111 16 178 -17z m-3063
-804 l0 -295 -305 0 -305 0 0 288 c0 159 3 292 7 295 3 4 141 7 305 7 l298 0
0 -295z m675 135 l0 -155 -61 -80 c-33 -44 -79 -106 -103 -137 l-42 -58 -204
0 -205 0 0 295 0 295 308 -2 307 -3 0 -155z m245 151 c0 -6 -4 -13 -10 -16 -5
-3 -44 -48 -86 -100 -41 -52 -78 -95 -80 -95 -2 0 -4 50 -4 110 l0 110 90 0
c50 0 90 -4 90 -9z m1408 -151 c70 -85 179 -213 240 -285 62 -71 112 -133 112
-137 0 -5 -135 -8 -300 -8 l-300 0 0 235 0 235 53 59 c28 33 55 58 59 58 3 -1
65 -72 136 -157z m1762 -20 c0 -99 -3 -180 -7 -180 -5 1 -45 47 -90 103 -45
56 -109 134 -142 174 -34 40 -61 75 -61 78 0 3 68 5 150 5 l150 0 0 -180z
m645 -115 l0 -290 -247 -3 c-144 -1 -248 1 -248 7 0 5 -20 36 -45 70 l-45 61
0 225 0 225 293 -2 292 -3 0 -290z m-2716 3 l-1 -93 -15 69 c-11 51 -12 75 -4
93 6 12 13 23 16 23 3 0 5 -42 4 -92z m-2019 -663 l0 -305 -305 0 -305 0 0
305 0 305 305 0 305 0 0 -305z m420 299 c0 -3 -40 -70 -89 -149 -49 -79 -124
-214 -167 -300 -44 -85 -85 -155 -91 -155 -10 0 -13 68 -13 305 l0 305 180 0
c99 0 180 -2 180 -6z m2290 -299 l0 -305 -228 0 -228 0 -43 138 c-44 137 -131
446 -131 463 0 5 134 9 315 9 l315 0 0 -305z m2025 0 l0 -300 -232 -3 c-128
-1 -233 -1 -233 2 0 2 10 25 22 52 20 44 22 66 22 229 1 141 -3 194 -17 243
-9 35 -17 68 -17 73 0 6 91 8 228 7 l227 -3 0 -300z m-3010 198 c10 -54 37
-183 61 -288 24 -104 44 -195 44 -202 0 -10 -46 -13 -210 -13 l-210 0 0 24 c0
36 271 576 289 576 4 0 16 -44 26 -97z m1195 -90 c78 -87 190 -207 249 -268
59 -60 113 -118 120 -127 13 -17 -1 -18 -253 -18 l-266 0 0 285 c0 157 2 285
4 285 2 0 68 -71 146 -157z m1264 -450 c-2 -10 -22 -128 -43 -263 -58 -357
-83 -467 -143 -645 -25 -77 -109 -250 -153 -319 -88 -138 -235 -294 -340 -361
-318 -204 -906 -343 -1671 -396 -224 -15 -768 -6 -874 14 -248 49 -444 235
-639 608 -65 124 -158 330 -176 389 l-7 25 23 -21 c103 -93 303 -124 673 -105
758 39 957 58 1333 131 177 34 318 70 503 129 478 151 981 419 1390 740 63 50
118 91 122 91 3 0 4 -8 2 -17z m-4184 -117 c0 -62 -7 -125 -21 -183 -12 -50
-24 -142 -28 -213 l-6 -125 -275 0 -275 0 -3 295 c-1 162 0 300 3 307 3 10 72
13 305 13 l300 0 0 -94z m1892 -46 c21 -74 59 -201 84 -281 25 -81 44 -157 42
-170 l-3 -24 -302 -3 -303 -2 0 310 0 310 222 -2 222 -3 38 -135z m816 -167
l-3 -308 -130 0 -129 0 -8 30 c-4 17 -21 86 -38 155 -16 69 -50 190 -75 270
-25 80 -45 148 -45 152 0 5 97 8 215 8 l215 0 -2 -307z m670 105 l-3 -203
-154 -77 c-234 -116 -299 -139 -379 -136 l-67 3 -3 308 -2 307 305 0 305 0 -2
-202z m1357 -108 l0 -305 -287 -3 c-255 -2 -288 -1 -288 13 0 9 7 48 15 88 13
62 85 498 85 512 0 3 107 4 238 3 l237 -3 0 -305z m-3390 -297 c-3 -10 -38
-13 -129 -13 -69 0 -127 3 -129 8 -4 7 154 366 223 507 l35 70 3 -280 c1 -154
0 -285 -3 -292z m2145 501 c19 -20 63 -56 98 -81 34 -25 60 -49 57 -53 -6 -10
-162 -106 -188 -116 -15 -6 -17 8 -17 140 0 80 3 146 8 146 4 0 23 -17 42 -36z
m-3536 -576 c2 -7 13 -45 25 -84 19 -63 21 -94 21 -297 l0 -227 -302 2 -303 3
-3 302 -2 302 27 4 c16 2 142 5 281 6 195 1 253 -2 256 -11z m1394 -124 c3
-156 24 -140 -193 -149 -82 -3 -165 -8 -182 -11 -24 -4 -33 -1 -33 9 0 16 98
255 112 274 7 8 52 11 151 10 l142 -2 3 -131z m672 36 c0 -55 -2 -100 -5 -100
-3 0 -67 -9 -142 -19 -122 -18 -420 -51 -451 -51 -9 0 -12 38 -12 128 0 71 2
131 5 134 3 3 141 6 305 6 l300 1 0 -99z m681 90 c15 -10 -27 -29 -133 -60
-106 -31 -103 -32 -106 22 l-3 47 114 -1 c63 0 121 -4 128 -8z m2034 -300 l0
-305 -292 -3 -293 -2 0 303 c0 167 3 307 7 311 4 4 136 6 293 4 l285 -3 0
-305z m-2635 142 c0 -13 -4 -20 -10 -17 -5 3 -10 21 -10 38 0 24 3 28 10 17 5
-8 10 -25 10 -38z m1990 -252 l0 -200 -100 0 c-55 0 -100 2 -100 3 0 2 22 41
50 86 27 46 71 134 97 197 26 63 49 114 50 114 2 0 3 -90 3 -200z m-3955 -45
c31 -71 57 -134 58 -140 1 -6 -25 -10 -63 -10 l-65 0 -3 150 c-2 93 1 146 7
140 5 -6 35 -68 66 -140z m-135 -515 l0 -300 -305 0 -305 0 0 300 0 300 305 0
305 0 0 -300z m270 233 c76 -147 171 -276 292 -396 65 -65 116 -123 113 -128
-4 -5 -135 -9 -311 -9 l-304 0 0 300 0 300 88 0 87 0 35 -67z m3820 -233 l0
-300 -325 0 -325 0 0 125 0 125 28 17 c155 96 212 144 321 271 l54 62 123 0
124 0 0 -300z m648 3 l-3 -298 -292 -3 -293 -2 0 300 0 300 295 0 295 0 -2
-297z m-1358 -193 l0 -110 -304 0 c-168 0 -307 4 -310 9 -9 14 15 27 79 40
112 24 329 90 425 130 52 22 98 40 103 40 4 1 7 -48 7 -109z m-670 -100 c0 -5
-9 -10 -21 -10 -11 0 -17 5 -14 10 3 6 13 10 21 10 8 0 14 -4 14 -10z m-2710
-360 l0 -290 -305 0 -305 0 0 290 0 290 305 0 305 0 0 -290z m678 -2 l2 -288
-277 -1 c-153 -1 -291 -2 -308 -3 l-30 -1 -3 293 -2 292 307 -2 308 -3 3 -287z
m242 282 c19 -6 124 -16 233 -22 l197 -12 0 -266 0 -267 -301 -7 c-166 -4
-303 -5 -305 -3 -3 2 -6 526 -4 580 0 11 140 9 180 -3z m1305 -132 c3 -79 5
-192 3 -252 -2 -91 -6 -111 -20 -120 -12 -7 -22 -8 -32 -1 -7 6 -32 22 -55 38
l-41 27 2 217 3 217 25 7 c14 4 44 7 66 8 l42 1 7 -142z m485 -148 c0 -225 -3
-290 -12 -291 -25 -1 -193 2 -194 4 -1 1 2 27 7 57 16 97 39 352 39 438 l0 82
80 0 80 0 0 -290z m670 0 l0 -289 -295 -3 c-162 -2 -300 -2 -305 0 -6 2 -10
110 -10 293 l0 289 305 0 305 0 0 -290z m710 0 l0 -290 -315 0 c-173 0 -318 0
-322 0 -5 0 -9 130 -11 290 l-2 290 325 0 325 0 0 -290z m648 -2 l2 -288 -295
0 -295 0 0 290 0 290 293 -2 292 -3 3 -287z m-2718 65 l0 -208 -88 0 c-63 0
-96 -5 -119 -17 -34 -19 -91 -71 -114 -105 -14 -20 -24 -22 -149 -24 l-135 -2
-3 271 -2 272 157 1 c87 1 201 5 253 9 52 3 119 7 148 8 l52 2 0 -207z"/>
</g>
</svg>
